# xmcd CD database file
#
# Track frame offsets:
#	150
#	15777
#	32330
#	54701
#	71491
#	86756
#	106423
#	120469
#	141105
#	153389
#	167107
#	185068
#
# Disc length: 2788 seconds
#
# Revision: 0
# Processed by: cddbd v1.5.1PL0 Copyright (c) Steve Scherf et al.
# Submitted via: CDex 1.51
#
DISCID=960ae20c
DTITLE=Bodo Kolbe and Norbert Schramber - Mer speele de Blues
DYEAR=1900
DGENRE=Blues
TTITLE0=Bodo Kolbe and Norbert Schramber - Mer speele de Bluus
TTITLE1=Bodo Kolbe and Norbert Schramber - Vorm Door Steher R‰g
TTITLE2=Bodo Kolbe and Norbert Schramber - Isch hab gedraamt die anner Na
TTITLE3=Bodo Kolbe and Norbert Schramber - Isch muﬂ emol unner doi Haub g
TTITLE4=Bodo Kolbe and Norbert Schramber - Haam zu dir
TTITLE5=Bodo Kolbe and Norbert Schramber - Bibaa Bluus
TTITLE6=Bodo Kolbe and Norbert Schramber - De Merfeller Dod
TTITLE7=Bodo Kolbe and Norbert Schramber - Nordweststadt Bluus
TTITLE8=Bodo Kolbe and Norbert Schramber - Isch les jeden Morje die Zeitu
TTITLE9=Bodo Kolbe and Norbert Schramber - Ohne Erwet
TTITLE10=Bodo Kolbe and Norbert Schramber - Es kimmt net uff die Greeﬂ o¥
TTITLE11=Bodo Kolbe and Norbert Schramber - B44
EXTD=
EXTT0=
EXTT1=
EXTT2=
EXTT3=
EXTT4=
EXTT5=
EXTT6=
EXTT7=
EXTT8=
EXTT9=
EXTT10=
EXTT11=
PLAYORDER=
